<?xml version="1.0" encoding="UTF-8"?>
<svg id="Layer_1" data-name="Layer 1" xmlns="http://www.w3.org/2000/svg" version="1.1" viewBox="0 0 32 29">
  <defs>
    <style>
      .cls-1 {
        fill: #fdb924;
      }

      .cls-1, .cls-2, .cls-3, .cls-4 {
        stroke-width: 0px;
      }

      .cls-2 {
        fill: #bebebe;
      }

      .cls-3 {
        fill: #8dc63f;
      }

      .cls-4 {
        fill: #00a4e4;
      }
    </style>
  </defs>
  <path class="cls-3" d="M22.4,16.2c-.8,3.5-2.6,6.7-5.2,9.1,4.1,3,9.5,3.9,14.3,2.3-1-5-4.4-9.3-9.1-11.4Z"/>
  <path class="cls-4" d="M.5,27.5c4.8,1.6,10.2.8,14.3-2.3-2.7-2.4-4.4-5.6-5.2-9.1C4.8,18.2,1.5,22.5.5,27.5Z"/>
  <path class="cls-2" d="M11.4,15.8c.7,3.2,2.3,6,4.6,8.1,2.4-2.2,3.9-5,4.6-8.1-3.1-.9-6.3-.9-9.3,0Z"/>
  <path class="cls-1" d="M16,.7c-3.4,3-5.3,7.3-5.3,11.8s0,1.1,0,1.6c3.4-1.1,7-1.1,10.4,0,0-.5,0-1.1,0-1.6,0-4.5-1.9-8.9-5.2-11.8Z"/>
</svg>