<?xml version="1.0" encoding="UTF-8"?>
<svg id="Layer_1" data-name="Layer 1" xmlns="http://www.w3.org/2000/svg" width="14.04" height="13" viewBox="0 0 14.04 13">
  <path d="M1.731,13c-.133,0-.261-.017-.387-.052-.563-.157-1.025-.576-1.237-1.12-.246-.63-.011-1.331.456-2.727l.75-2.241c.046-.138.083-.247.087-.282.004-.032.004-.064,0-.096-.005-.036-.041-.145-.087-.283l-.766-2.308C.086,2.497-.147,1.797.1,1.169.313.626.775.208,1.337.052c.651-.181,1.323.121,2.662.724l7.58,3.411c1.313.591,1.972.888,2.269,1.488.256.518.256,1.137,0,1.655-.297.6-.955.896-2.268,1.487l-7.567,3.405c-1.082.487-1.73.778-2.281.778ZM1.734,11.506c.027,0,.139-.008.441-.12.304-.113.71-.295,1.223-.526l7.567-3.405c.502-.226.898-.404,1.177-.553.276-.148.354-.225.371-.244.045-.098.045-.214,0-.312-.017-.019-.094-.096-.371-.244-.279-.149-.675-.328-1.177-.553L3.386,2.138c-.512-.231-.917-.413-1.22-.525-.301-.112-.413-.12-.44-.119-.104.032-.189.11-.232.21-.003.026-.007.139.073.45.081.313.221.734.398,1.267l.766,2.308c.003.009.006.018.009.027h3.95c.412,0,.747.334.747.747s-.334.747-.747.747h-3.933c-.009.027-.779,2.326-.779,2.326-.179.534-.32.956-.402,1.27-.081.312-.078.424-.075.451.043.1.128.178.232.21ZM1.503,11.302h0,0ZM12.517,6.654s0,0,0,0c0,0,0,0,0,0ZM12.517,6.35s0,0,0,0c0,0,0,0,0,0ZM1.721,1.494s0,0,0,0c0,0,0,0,0,0Z" style="fill: #000; stroke-width: 0px;"/>
</svg>