<?xml version="1.0" encoding="UTF-8"?>
<svg id="Layer_1" data-name="Layer 1" xmlns="http://www.w3.org/2000/svg" width="13" height="13" viewBox="0 0 13 13">
  <path d="M7.911,10.399H.645c-.348,0-.645.291-.645.65,0,.362.288.65.645.65h7.266c.267.757.99,1.3,1.839,1.3s1.571-.543,1.839-1.3h.766c.348,0,.645-.291.645-.65,0-.362-.288-.65-.645-.65h-.766c-.267-.757-.99-1.3-1.839-1.3s-1.571.543-1.839,1.3h0ZM5.739,7.149h6.616c.348,0,.645-.291.645-.65,0-.362-.288-.65-.645-.65h-6.616c-.267-.757-.99-1.3-1.839-1.3s-1.571.543-1.839,1.3H.645c-.348,0-.645.292-.645.651,0,.362.288.65.645.65h1.416c.267.757.99,1.3,1.839,1.3s1.571-.543,1.839-1.3h0ZM7.911,1.3H.645c-.348,0-.645.291-.645.65,0,.362.288.65.645.65h7.266c.267.757.99,1.3,1.839,1.3s1.571-.543,1.839-1.3h.766c.348,0,.645-.291.645-.65,0-.362-.288-.65-.645-.65h-.766c-.267-.757-.99-1.3-1.839-1.3s-1.571.543-1.839,1.3h0ZM9.749,2.6c.359,0,.65-.291.65-.65s-.291-.65-.65-.65-.65.291-.65.65.291.65.65.65ZM3.9,5.85c-.359,0-.65.291-.65.65s.291.65.65.65.65-.291.65-.65-.291-.65-.65-.65ZM9.749,11.7c.359,0,.65-.291.65-.65s-.291-.65-.65-.65-.65.291-.65.65.291.65.65.65Z" style="fill: #000; fill-rule: evenodd; stroke-width: 0px;"/>
</svg>