<?xml version="1.0" encoding="UTF-8"?>
<svg id="Layer_1" data-name="Layer 1" xmlns="http://www.w3.org/2000/svg" width="14.181" height="13" viewBox="0 0 14.181 13">
  <path d="M1.182,6.5c0-1.96,1.585-3.545,3.545-3.545.002,0,.003,0,.005,0h3.296l-.764.764c-.231.231-.231.605,0,.836s.605.231.836,0l1.773-1.773s0,0,0,0c.014-.014.027-.028.039-.043.006-.007.01-.014.016-.021.006-.008.013-.017.019-.025.006-.008.01-.017.016-.026.005-.008.01-.016.014-.024.005-.009.009-.018.013-.027.004-.009.008-.017.012-.026.004-.009.007-.018.01-.026.003-.009.007-.019.01-.028.003-.009.005-.018.007-.027.002-.01.005-.019.007-.029.002-.01.003-.021.005-.031.001-.009.003-.017.004-.026.004-.039.004-.078,0-.117,0-.009-.002-.017-.004-.026-.001-.01-.003-.021-.005-.031-.002-.01-.005-.02-.007-.029-.002-.009-.004-.018-.007-.027-.003-.01-.006-.019-.01-.028-.003-.009-.006-.018-.01-.027-.004-.009-.008-.017-.012-.026-.004-.009-.008-.018-.013-.027-.004-.008-.009-.016-.014-.024-.005-.009-.01-.017-.016-.026-.006-.009-.012-.017-.019-.025-.005-.007-.01-.014-.016-.021-.012-.015-.025-.029-.039-.043,0,0,0,0,0,0l-1.773-1.773c-.231-.231-.605-.231-.836,0-.231.231-.231.605,0,.836l.764.764h-3.301s-.004,0-.006,0c-2.61.004-4.721,2.116-4.721,4.727,0,1.178.471,2.287,1.291,3.108.231.231.605.231.836,0s.231-.605,0-.836c-.601-.602-.945-1.412-.945-2.272Z" style="fill: #000; stroke-width: 0px;"/>
  <path d="M14.181,6.5c0-1.178-.471-2.287-1.291-3.108-.231-.231-.605-.231-.836,0-.231.231-.231.605,0,.836.601.602.945,1.412.945,2.272,0,1.96-1.585,3.545-3.545,3.545-.002,0-.003,0-.005,0h-3.296l.764-.764c.231-.231.231-.605,0-.836-.231-.231-.605-.231-.836,0l-1.773,1.773s0,0,0,0c-.014.014-.027.028-.039.043-.006.007-.01.014-.016.021-.006.008-.013.017-.019.025-.006.008-.01.017-.016.026-.005.008-.01.016-.014.024-.005.009-.009.018-.013.027-.004.009-.008.017-.012.026-.004.009-.006.018-.01.026-.003.009-.007.019-.01.028-.003.009-.005.018-.007.027-.002.01-.005.019-.007.029-.002.01-.003.021-.005.031-.001.009-.003.017-.004.026-.002.019-.003.038-.003.058,0,0,0,0,0,0s0,0,0,0c0,.019.001.039.003.058,0,.009.003.017.004.026.001.01.003.021.005.031.002.01.005.02.007.029.002.009.004.018.007.027.003.01.006.019.01.028.003.009.006.018.01.026.004.009.008.017.012.026.004.009.008.018.013.027.004.008.009.016.014.024.005.009.01.017.016.026.006.009.012.017.019.025.005.007.01.014.016.021.012.015.025.03.039.043l1.773,1.773c.231.231.605.231.836,0,.231-.231.231-.605,0-.836l-.764-.764h3.301s.004,0,.006,0c2.61-.003,4.721-2.116,4.721-4.727Z" style="fill: #000; stroke-width: 0px;"/>
</svg>